<svg width="28" height="28" viewBox="0 0 28 28" fill="none" xmlns="http://www.w3.org/2000/svg">
<path d="M21.8952 11.9241C21.2882 11.9241 20.7938 12.4196 20.7938 13.0255C20.7938 16.775 17.7424 19.8265 13.9929 19.8265C10.2468 19.8243 7.19535 16.777 7.19199 13.032C7.19745 12.7388 7.09136 12.4632 6.88793 12.2532C6.68231 12.04 6.40449 11.9251 6.10589 11.9251C5.49885 11.9251 5.00449 12.4206 5.00449 13.0265C5.00449 15.307 5.86308 17.4836 7.42167 19.1538C8.87635 20.7123 10.8069 21.6934 12.9013 21.9483V25.0818H10.0226C9.41555 25.0818 8.92118 25.5772 8.92118 26.1832C8.92118 26.7902 9.41664 27.2846 10.0226 27.2846H17.983C18.59 27.2846 19.0844 26.7891 19.0844 26.1832C19.0844 25.5761 18.5889 25.0818 17.983 25.0818H15.101V21.9483C17.1955 21.6913 19.126 20.7102 20.5806 19.1505C22.1391 17.4792 22.9977 15.3038 22.9977 13.0255C22.9955 12.4184 22.5023 11.9241 21.8963 11.9241L21.8952 11.9241Z" fill="#E0E3FF"/>
<path d="M14.0021 18.5064C17.0264 18.5064 19.4873 16.0454 19.4873 13.0212V6.20178C19.4873 3.1775 17.0263 0.716583 14.0021 0.716583C10.9778 0.716583 8.51688 3.17753 8.51688 6.20178V13.0212C8.51688 16.0455 10.9778 18.5064 14.0021 18.5064Z" fill="#E0E3FF"/>
</svg>
