<?xml version="1.0" encoding="UTF-8"?>
<svg xmlns="http://www.w3.org/2000/svg" xmlns:xlink="http://www.w3.org/1999/xlink" width="14px" height="14px" viewBox="0 0 14 14" version="1.1">
<g id="surface1">
<path fill="white" style=" stroke:none;fill-rule:nonzero;fill-opacity:1;" d="M 0.71875 2.304688 L 0.71875 11.695312 C 0.71875 12.96875 1.5625 14 2.601562 14 C 3.644531 14 4.488281 12.96875 4.488281 11.695312 L 4.488281 2.304688 C 4.488281 1.03125 3.644531 0 2.601562 0 C 1.5625 0 0.71875 1.03125 0.71875 2.304688 Z M 0.71875 2.304688 "/>
<path fill="white" style=" stroke:none;fill-rule:nonzero;fill-opacity:1;" d="M 11.398438 0 C 10.355469 0 9.511719 1.03125 9.511719 2.304688 L 9.511719 11.695312 C 9.511719 12.96875 10.355469 14 11.398438 14 C 12.4375 14 13.28125 12.96875 13.28125 11.695312 L 13.28125 2.304688 C 13.28125 1.03125 12.4375 0 11.398438 0 Z M 11.398438 0 "/>
</g>
</svg>
