<svg width="19" height="21" viewBox="0 0 19 21" fill="none" xmlns="http://www.w3.org/2000/svg">
<path d="M9.89325 1.98163L10.0986 0.575425C10.1097 0.502537 10.0757 0.431023 10.0132 0.393195C9.9529 0.355376 9.86966 0.357439 9.81 0.398009L6.61492 2.5949C6.56637 2.6286 6.53654 2.68498 6.53654 2.74481C6.53654 2.80463 6.56637 2.86102 6.61631 2.8954L9.81068 5.09176C9.8412 5.11308 9.87797 5.12477 9.92028 5.12477C10.0223 5.12477 10.1055 5.04225 10.1055 4.94117C10.1055 4.91985 10.102 4.89922 10.0951 4.87997L9.90988 3.53909L9.89325 1.98163Z" fill="#6F58DE"/>
<path fill-rule="evenodd" clip-rule="evenodd" d="M17.4254 11.353C17.4254 6.92215 13.8335 3.33021 9.40259 3.33021V2.12587C14.4986 2.12587 18.6298 6.25701 18.6298 11.353C18.6298 16.4491 14.4986 20.5802 9.40259 20.5802C4.30656 20.5802 0.175415 16.4491 0.175415 11.353H1.37976C1.37976 15.7839 4.9717 19.3759 9.40259 19.3759C13.8335 19.3759 17.4254 15.7839 17.4254 11.353Z" fill="#6F58DE"/>
</svg>
