<svg width="20" height="21" viewBox="0 0 20 21" fill="none" xmlns="http://www.w3.org/2000/svg">
<path d="M9.3294 1.98163L9.12408 0.575425C9.11298 0.502537 9.14697 0.431023 9.2094 0.393195C9.26975 0.355376 9.353 0.357439 9.41265 0.398009L12.6077 2.5949C12.6563 2.6286 12.6861 2.68498 12.6861 2.74481C12.6861 2.80463 12.6563 2.86102 12.6063 2.8954L9.41197 5.09176C9.38145 5.11308 9.34468 5.12477 9.30237 5.12477C9.2004 5.12477 9.11715 5.04225 9.11715 4.94117C9.11715 4.91985 9.12062 4.89922 9.12755 4.87997L9.31277 3.53909L9.3294 1.98163Z" fill="#6F58DE"/>
<path fill-rule="evenodd" clip-rule="evenodd" d="M1.79724 11.353C1.79724 6.92215 5.38918 3.33021 9.82007 3.33021V2.12587C4.72404 2.12587 0.592896 6.25701 0.592896 11.353C0.592896 16.4491 4.72404 20.5802 9.82007 20.5802C14.9161 20.5802 19.0472 16.4491 19.0472 11.353H17.8429C17.8429 15.7839 14.251 19.3759 9.82007 19.3759C5.38918 19.3759 1.79724 15.7839 1.79724 11.353Z" fill="#6F58DE"/>
</svg>
